<?xml version="1.0" encoding="UTF-8"?>
<svg version="1.1" xmlns="http://www.w3.org/2000/svg" width="224" height="48">
<path d="M0 0 C10.56 0 21.12 0 32 0 C31.12167314 3.51330743 30.07289018 6.0630858 28.4375 9.25 C27.98246094 10.14203125 27.52742188 11.0340625 27.05859375 11.953125 C26.53458984 12.96632813 26.53458984 12.96632813 26 14 C25.01 14 24.02 14 23 14 C23 12.35 23 10.7 23 9 C19.71303767 8.20046862 18.28976808 7.90341064 15 9 C13.94900601 11.84386608 13.5186581 13.06536714 14 16 C17.30825723 20.73313561 21.19419478 24.79612986 26 28 C26 25.69 26 23.38 26 21 C34.57142857 22 34.57142857 22 38 23 C37.50341703 28.66104589 36.45489316 32.87674471 34 38 C34.5053125 38.55429687 35.010625 39.10859375 35.53125 39.6796875 C36.1809375 40.40414062 36.830625 41.12859375 37.5 41.875 C38.1496875 42.59429687 38.799375 43.31359375 39.46875 44.0546875 C41 46 41 46 41 48 C38.77090129 48.02714735 36.54170633 48.04646254 34.3125 48.0625 C32.45044922 48.07990234 32.45044922 48.07990234 30.55078125 48.09765625 C27.53121314 48.01460982 24.9401913 47.58803826 22 47 C21.01 47.495 21.01 47.495 20 48 C2.85920795 49.29016714 2.85920795 49.29016714 -3.65234375 44.484375 C-6.8083607 41.00818241 -7.4513559 37.70201177 -7.3125 33.015625 C-6.3957167 27.10237268 -1.12261721 22.93522552 3 19 C2.01 17.4840625 2.01 17.4840625 1 15.9375 C-2.09976888 10.51564276 -1.19691393 5.98456964 0 0 Z M7.8125 29.6875 C5.7183817 31.85487916 5.7183817 31.85487916 6.0625 34.625 C6.86655546 37.32289761 6.86655546 37.32289761 10 39 C12.06910593 39.02749478 12.06910593 39.02749478 14.1875 38.625 C15.445625 38.41875 16.70375 38.2125 18 38 C16.63312778 34.01328937 14.84804907 31.11505367 12 28 C9.80346833 27.79639885 9.80346833 27.79639885 7.8125 29.6875 Z " fill="#FFFFFF" transform="translate(52,0)"/>
<path d="M0 0 C18.81 0 37.62 0 57 0 C56.34 1.32 55.68 2.64 55 4 C54.01 4 53.02 4 52 4 C51.9071875 4.8353125 51.9071875 4.8353125 51.8125 5.6875 C50.66383862 8.956767 48.51178856 10.67659558 46 13 C45.67 13.33 45.34 13.66 45 14 C42.30345146 14.07319621 39.63308542 14.09242537 36.9375 14.0625 C35.79958008 14.05573242 35.79958008 14.05573242 34.63867188 14.04882812 C32.75908129 14.0370068 30.87953101 14.01907078 29 14 C28.896875 15.06476562 28.79375 16.12953125 28.6875 17.2265625 C27.95764521 23.05769109 26.45388059 28.68977828 25 34.375 C24.72671875 35.46683594 24.4534375 36.55867188 24.171875 37.68359375 C22.14074248 45.71851504 22.14074248 45.71851504 21 48 C16.05 48 11.1 48 6 48 C6.67574359 41.02294745 8.26526236 34.4084788 10 27.625 C10.27328125 26.53316406 10.5465625 25.44132812 10.828125 24.31640625 C12.85925752 16.28148496 12.85925752 16.28148496 14 14 C7.4 14 0.8 14 -6 14 C-4 8 -4 8 0 0 Z M40 4 C40 4.33 40 4.66 40 5 C43.63 5 47.26 5 51 5 C51 4.67 51 4.34 51 4 C47.37 4 43.74 4 40 4 Z " fill="#FFFFFF" transform="translate(89,0)"/>
<path d="M0 0 C1.39456452 0.00667256 2.78911118 0.01863093 4.18359375 0.03515625 C5.2499707 0.04192383 5.2499707 0.04192383 6.33789062 0.04882812 C8.09899388 0.06064761 9.86005411 0.07858362 11.62109375 0.09765625 C11.02516821 6.38370949 10.01359113 12.36919698 8.5546875 18.5078125 C8.35633804 19.36072372 8.15798859 20.21363495 7.95362854 21.09239197 C7.32679596 23.78280635 6.69282747 26.4714781 6.05859375 29.16015625 C5.62908184 30.99793582 5.20004098 32.83582555 4.77148438 34.67382812 C3.72765973 39.14995816 2.67417536 43.623655 1.62109375 48.09765625 C-10.58890625 48.09765625 -22.79890625 48.09765625 -35.37890625 48.09765625 C-34.17389708 39.66259207 -34.17389708 39.66259207 -31.37890625 37.09765625 C-29.20239258 36.64355469 -29.20239258 36.64355469 -26.7109375 36.70703125 C-25.81826172 36.71992187 -24.92558594 36.7328125 -24.00585938 36.74609375 C-23.07708984 36.77960937 -22.14832031 36.813125 -21.19140625 36.84765625 C-19.78084961 36.87472656 -19.78084961 36.87472656 -18.34179688 36.90234375 C-16.01980736 36.94949075 -13.69986935 37.01527394 -11.37890625 37.09765625 C-11.27578125 35.90140625 -11.17265625 34.70515625 -11.06640625 33.47265625 C-10.33634683 26.91240398 -8.83389314 20.52842376 -7.37890625 14.09765625 C-7.105625 12.85886719 -6.83234375 11.62007812 -6.55078125 10.34375 C-4.262092 0.12318185 -4.262092 0.12318185 0 0 Z " fill="#FFFFFF" transform="translate(35.37890625,-0.09765625)"/>
<path d="M0 0 C1.375 2.0625 1.375 2.0625 2 4 C2.37125 3.34 2.7425 2.68 3.125 2 C5 0 5 0 8.1875 -0.25 C9.115625 -0.1675 10.04375 -0.085 11 0 C10.38125 1.0725 9.7625 2.145 9.125 3.25 C8.7640625 3.89195313 8.403125 4.53390625 8.03125 5.1953125 C7.26920179 6.52889688 6.45941076 7.8354561 5.625 9.125 C4.70516231 11.88451307 5.83640266 13.41422813 7 16 C7 17.32 7 18.64 7 20 C5.02 20 3.04 20 1 20 C0.67 18.68 0.34 17.36 0 16 C-0.29519531 16.65484375 -0.59039062 17.3096875 -0.89453125 17.984375 C-3.84302389 20.8070507 -6.05773574 20.41178824 -10.01757812 20.3515625 C-10.89865234 20.31804688 -11.77972656 20.28453125 -12.6875 20.25 C-13.58017578 20.23195313 -14.47285156 20.21390625 -15.39257812 20.1953125 C-17.59613504 20.14817759 -19.79752601 20.08240657 -22 20 C-20.07289294 6.3667426 -20.07289294 6.3667426 -18 0 C-4.23267327 -1.4480198 -4.23267327 -1.4480198 0 0 Z M-6 1 C-6 2.32 -6 3.64 -6 5 C-8.64 5 -11.28 5 -14 5 C-13.67 5.99 -13.34 6.98 -13 8 C-11.35 7.67 -9.7 7.34 -8 7 C-8 8.65 -8 10.3 -8 12 C-10.31 12 -12.62 12 -15 12 C-15 12.99 -15 13.98 -15 15 C-12.69 15 -10.38 15 -8 15 C-7.67 15.66 -7.34 16.32 -7 17 C-3.72395787 12.91264818 -3.72395787 12.91264818 -3.125 7.875 C-3.88271152 5.38537643 -4.70262093 3.24879038 -6 1 Z " fill="#FFFFFF" transform="translate(143,28)"/>
<path d="M0 0 C4.29 0 8.58 0 13 0 C13 0.99 13 1.98 13 3 C13.495 2.505 13.99 2.01 14.5 1.5 C18.11630158 -0.66978095 20.82231616 -0.20888419 25 0 C25.33 0.66 25.66 1.32 26 2 C25.0625 4.125 25.0625 4.125 24 6 C21.03 5.505 21.03 5.505 18 5 C18 5.66 18 6.32 18 7 C18.78375 7.226875 19.5675 7.45375 20.375 7.6875 C23 9 23 9 24.5 11.3125 C25 14 25 14 23.6875 16.75 C22 19 22 19 21 20 C19.14630389 20.08737645 17.28932459 20.10698153 15.43359375 20.09765625 C14.30888672 20.09443359 13.18417969 20.09121094 12.02539062 20.08789062 C10.84138672 20.07951172 9.65738281 20.07113281 8.4375 20.0625 C7.24962891 20.05798828 6.06175781 20.05347656 4.83789062 20.04882812 C1.89187774 20.03699675 -1.05403681 20.02051287 -4 20 C-3.52476432 17.04098541 -3.04499898 14.08283097 -2.5625 11.125 C-2.42779297 10.28324219 -2.29308594 9.44148438 -2.15429688 8.57421875 C-2.02216797 7.76855469 -1.89003906 6.96289062 -1.75390625 6.1328125 C-1.63345947 5.38918457 -1.5130127 4.64555664 -1.38891602 3.87939453 C-1 2 -1 2 0 0 Z M4 5 C4 5.66 4 6.32 4 7 C6.31 7 8.62 7 11 7 C10.67 8.65 10.34 10.3 10 12 C7.69 12 5.38 12 3 12 C3 12.99 3 13.98 3 15 C5.31 15 7.62 15 10 15 C10.33 15.66 10.66 16.32 11 17 C11.66 16.34 12.32 15.68 13 15 C16.125 14.875 16.125 14.875 19 15 C19 14.34 19 13.68 19 13 C18.030625 12.38125 17.06125 11.7625 16.0625 11.125 C13 9 13 9 12.125 6.75 C12.08375 6.1725 12.0425 5.595 12 5 C9.36 5 6.72 5 4 5 Z " fill="#FFFFFF" transform="translate(186,28)"/>
<path d="M0 0 C3.3 0 6.6 0 10 0 C10.99 0.99 11.98 1.98 13 3 C12.6875 6.6875 12.6875 6.6875 12 10 C11.34 10 10.68 10 10 10 C10.33 10.66 10.66 11.32 11 12 C11.13415472 14.6723621 11.04318541 17.32250488 11 20 C9.35 20 7.7 20 6 20 C5.67 17.69 5.34 15.38 5 13 C4.34 13 3.68 13 3 13 C2.67 15.31 2.34 17.62 2 20 C0.02 20 -1.96 20 -4 20 C-2.68 13.4 -1.36 6.8 0 0 Z M4 5 C4 5.99 4 6.98 4 8 C5.32 7.67 6.64 7.34 8 7 C7.67 6.34 7.34 5.68 7 5 C6.01 5 5.02 5 4 5 Z " fill="#FFFFFF" transform="translate(170,28)"/>
<path d="M0 0 C8.00526316 -0.61578947 8.00526316 -0.61578947 11.625 1.625 C13 4 13 4 13 7.0625 C11.84308514 10.46093739 11.1641788 11.37515143 8 13 C4.75 13.6875 4.75 13.6875 2 14 C2 15.98 2 17.96 2 20 C0.02 20 -1.96 20 -4 20 C-3.6143354 12.88515313 -2.60900601 6.64558134 0 0 Z M4 5 C3.67 6.32 3.34 7.64 3 9 C4.32 8.67 5.64 8.34 7 8 C7 7.01 7 6.02 7 5 C6.01 5 5.02 5 4 5 Z " fill="#FFFFFF" transform="translate(155,28)"/>
<path d="M0 0 C0 1.98 0 3.96 0 6 C-2.97 5.505 -2.97 5.505 -6 5 C-6 5.66 -6 6.32 -6 7 C-5.195625 7.309375 -4.39125 7.61875 -3.5625 7.9375 C-1 9 -1 9 0 10 C0.46734854 16.30920535 0.46734854 16.30920535 -1.16015625 18.71484375 C-3.73307788 20.51206502 -5.58457433 20.29701502 -8.6875 20.1875 C-10.17830078 20.14689453 -10.17830078 20.14689453 -11.69921875 20.10546875 C-12.45847656 20.07066406 -13.21773437 20.03585938 -14 20 C-13.67 18.02 -13.34 16.04 -13 14 C-10.69 14 -8.38 14 -6 14 C-6.804375 13.443125 -7.60875 12.88625 -8.4375 12.3125 C-11 10 -11 10 -12.125 7.5625 C-12 5 -12 5 -10 2.1875 C-6.36843207 -0.46051828 -4.39509566 -0.43089173 0 0 Z " fill="#FFFFFF" transform="translate(224,28)"/>
</svg>
