<?xml version="1.0" encoding="utf-8"?>
<!-- Generator: Adobe Illustrator 28.0.0, SVG Export Plug-In . SVG Version: 6.00 Build 0)  -->
<svg version="1.1" id="Layer_1" xmlns="http://www.w3.org/2000/svg" xmlns:xlink="http://www.w3.org/1999/xlink" x="0px" y="0px"
	 viewBox="0 0 566.93 566.93" style="enable-background:new 0 0 566.93 566.93;" xml:space="preserve">
<style type="text/css">
	.st0{fill:#2B2B2B;}
	.st1{fill:#F04E23;}
</style>
<g>
	<g>
		<path class="st0" d="M260.86,172.96c-3.9,0-7.04-2.46-9.44-7.38l-9.58-15l25.62-29.52h-25.88l-21.49,26.22V90.1h-22.52v102.62
			h22.52V175.7l6.78-7.73l9.5,16.35c3.28,5.61,8.55,8.41,15.73,8.41h13.84v-19.76H260.86z"/>
		<path class="st0" d="M91.47,157.17c0,10.91-3.43,19.56-10.37,25.95c-6.93,6.38-16.13,9.61-27.66,9.61
			c-9.82,0-18.05-2.4-24.78-7.21c-6.73-4.81-11.53-11.39-14.48-19.77l21.76-6.32c2.68,8.72,8.37,13.11,17.09,13.18
			c4.67,0,8.37-1.51,11.12-4.53c2.75-3.02,4.12-6.86,4.12-11.46v-43.73H25.16V92.5h66.31V157.17z"/>
		<path class="st0" d="M137.53,192.72c-9.75,0-17.98-3.64-24.71-10.85c-6.73-7.21-10.09-16.2-10.09-26.98
			c0-10.78,3.36-19.77,10.09-26.98c6.73-7.21,14.96-10.85,24.71-10.85c8.51,0,15.38,2.88,20.66,8.58v-6.59h22.52v71.66h-22.52v-6.59
			c-5.42,5.7-12.29,8.58-20.59,8.58H137.53z M141.58,172.82c5.01,0,9.13-1.65,12.36-5.01c3.23-3.36,4.87-7.69,4.87-12.97
			c0-5.29-1.65-9.54-4.87-12.84c-3.23-3.29-7.34-4.94-12.29-4.94c-4.87,0-8.86,1.65-12.01,4.94c-3.16,3.29-4.74,7.55-4.74,12.84
			c0,5.35,1.58,9.68,4.74,12.97c3.16,3.29,7.14,4.94,12.01,4.94L141.58,172.82z"/>
		<path class="st0" d="M304.61,192.72c-9.75,0-17.98-3.64-24.71-10.85c-6.73-7.21-10.09-16.2-10.09-26.98
			c0-10.78,3.36-19.77,10.09-26.98s14.96-10.85,24.71-10.85c8.51,0,15.38,2.88,20.66,8.58v-6.59h22.52v71.66h-22.52v-6.59
			c-5.42,5.7-12.29,8.58-20.59,8.58H304.61z M308.66,172.82c5.01,0,9.13-1.65,12.36-5.01c3.23-3.36,4.87-7.69,4.87-12.97
			c0-5.29-1.65-9.54-4.87-12.84c-3.23-3.29-7.34-4.94-12.29-4.94c-4.87,0-8.86,1.65-12.01,4.94s-4.74,7.55-4.74,12.84
			c0,5.35,1.58,9.68,4.74,12.97c3.16,3.29,7.14,4.94,12.01,4.94L308.66,172.82z"/>
		<path class="st0" d="M387.12,130.6c2.13-3.91,5.15-6.86,8.99-8.79c3.84-1.92,8.31-2.54,13.45-1.92v21.07
			c-7.69-1.3-13.32-0.21-16.96,3.29c-3.64,3.5-5.42,9.68-5.42,18.53v29.93h-22.52v-71.66h22.52v9.68L387.12,130.6z"/>
		<path class="st0" d="M470.73,189.22c-5.9,2.33-11.74,3.5-17.57,3.5c-8.44,0-14.76-2.4-19.01-7.21s-6.38-11.39-6.38-19.84v-26.15
			h-11.12v-19.63h11.12V97.38h22.52v22.52h19.29v19.63h-19.29v26.15c0,5.01,2.47,7.48,7.41,7.48c2.75,0,5.29-0.62,7.62-1.85
			L470.73,189.22z"/>
		<path class="st0" d="M509.58,192.72c-9.75,0-17.98-3.64-24.71-10.85c-6.73-7.21-10.09-16.2-10.09-26.98
			c0-10.78,3.36-19.77,10.09-26.98c6.73-7.21,14.96-10.85,24.71-10.85c8.51,0,15.38,2.88,20.66,8.58v-6.59h22.52v71.66h-22.52v-6.59
			c-5.42,5.7-12.29,8.58-20.59,8.58H509.58z M513.63,172.82c5.01,0,9.13-1.65,12.36-5.01c3.23-3.36,4.87-7.69,4.87-12.97
			c0-5.29-1.65-9.54-4.87-12.84c-3.23-3.29-7.34-4.94-12.29-4.94c-4.87,0-8.86,1.65-12.01,4.94c-3.16,3.29-4.74,7.55-4.74,12.84
			c0,5.35,1.58,9.68,4.74,12.97c3.16,3.29,7.14,4.94,12.01,4.94L513.63,172.82z"/>
	</g>
	<path class="st1" d="M311.87,246.48c-9.11,0-17.45,3.29-23.91,8.73l-18,14.95v0c0,0,0,0,0,0v0c-1.94,1.61-3.89,3.21-5.83,4.82
		c-0.54-2.28-1.29-4.48-2.23-6.57l0,0c0-0.01-0.01-0.02-0.01-0.03c-0.72-1.6-1.55-3.14-2.48-4.61c-0.01-0.01-0.02-0.02-0.02-0.04
		c-0.93-1.47-1.96-2.86-3.08-4.18c-0.02-0.02-0.03-0.04-0.05-0.06c-1.12-1.3-2.32-2.53-3.6-3.67c-0.04-0.03-0.07-0.06-0.11-0.09
		c-0.61-0.53-1.23-1.05-1.87-1.54c-0.04-0.03-0.09-0.07-0.13-0.1c-0.66-0.51-1.34-0.99-2.04-1.45c-0.06-0.04-0.12-0.08-0.18-0.11
		c-0.63-0.41-1.28-0.81-1.93-1.18c-0.1-0.06-0.2-0.12-0.3-0.18c-0.71-0.4-1.43-0.77-2.17-1.12c-0.05-0.02-0.1-0.05-0.15-0.07
		c-0.03-0.01-0.06-0.03-0.09-0.04c-0.06-0.03-0.13-0.06-0.19-0.08c-0.59-0.27-1.2-0.53-1.81-0.77c-0.15-0.06-0.31-0.12-0.46-0.18
		c-0.75-0.28-1.51-0.55-2.28-0.79c-0.09-0.03-0.18-0.05-0.27-0.08c-0.69-0.21-1.38-0.39-2.09-0.55c-0.19-0.05-0.38-0.09-0.58-0.13
		c-0.79-0.17-1.58-0.33-2.38-0.45c-0.06-0.01-0.13-0.02-0.19-0.02c-0.75-0.11-1.5-0.19-2.26-0.25c-0.21-0.02-0.42-0.03-0.64-0.05
		c-0.83-0.05-1.66-0.09-2.49-0.09c0,0,0,0,0,0h0c0,0,0,0,0,0h0h0h0c0,0,0,0,0,0c0,0,0,0,0,0c-0.1,0-0.2,0-0.3,0
		c-0.22,0-0.43,0.01-0.64,0.01c-0.73,0.02-1.45,0.06-2.17,0.12c-0.1,0.01-0.21,0.02-0.31,0.02c-0.03,0-0.05,0-0.08,0.01
		c-0.08,0.01-0.15,0.02-0.22,0.02c-0.9,0.09-1.8,0.22-2.68,0.37c-0.16,0.03-0.31,0.05-0.47,0.08c-0.48,0.09-0.95,0.19-1.42,0.29
		c-0.1,0.02-0.2,0.05-0.3,0.07c-0.13,0.03-0.27,0.06-0.4,0.1c-0.23,0.06-0.47,0.12-0.7,0.18c-0.08,0.02-0.17,0.05-0.25,0.07
		c-0.04,0.01-0.09,0.02-0.13,0.04c-0.96,0.27-1.9,0.57-2.83,0.91c-0.02,0.01-0.04,0.02-0.06,0.03c-0.01,0.01-0.03,0.01-0.04,0.02
		c-0.42,0.16-0.83,0.32-1.24,0.49c-0.53,0.22-1.06,0.46-1.59,0.7c-0.03,0.01-0.05,0.02-0.08,0.04c-0.89,0.43-1.76,0.89-2.61,1.38
		c-0.1,0.06-0.21,0.12-0.31,0.18c-0.05,0.03-0.09,0.06-0.14,0.09c-0.47,0.28-0.94,0.58-1.4,0.88c-0.28,0.18-0.55,0.37-0.82,0.56
		c-0.13,0.09-0.26,0.19-0.39,0.28c-0.74,0.53-1.46,1.08-2.16,1.66c-0.05,0.04-0.1,0.07-0.15,0.11l-18,14.95v0c0,0,0,0,0,0v0
		c-2.05,1.7-4.1,3.39-6.15,5.09c0,0-3.23,2.68-4.85,4.03l-6.24,5.24c-2.87,2.43-5.73,4.88-8.57,7.35
		c-5.75,4.81-12.19,9.92-20.2,7.91c-7.23-1.82-12.61-8.74-12.61-16.19c0-9.22,7.47-16.7,16.7-16.7c8.15,0,14.92,5.85,16.38,13.58
		l16.58-13.91c-6.17-11.92-18.61-20.07-32.96-20.07c-20.49,0-37.1,16.61-37.1,37.1c0,20.49,16.61,37.1,37.1,37.1
		c9.11,0,17.45-3.29,23.91-8.73l18-14.95c0,0,0,0,0,0v0c1.94-1.61,3.89-3.21,5.83-4.82c0.54,2.28,1.29,4.48,2.23,6.57l0,0
		c0,0.01,0.01,0.02,0.01,0.03c0.72,1.6,1.55,3.14,2.48,4.61c0.01,0.01,0.02,0.02,0.02,0.04c0.93,1.47,1.96,2.86,3.08,4.18
		c0.02,0.02,0.03,0.04,0.05,0.06c1.12,1.3,2.32,2.53,3.6,3.67c0.04,0.03,0.07,0.06,0.11,0.09c0.61,0.53,1.23,1.05,1.87,1.54
		c0.04,0.03,0.09,0.07,0.13,0.1c0.66,0.51,1.34,0.99,2.04,1.45c0.06,0.04,0.12,0.08,0.18,0.11c0.63,0.41,1.28,0.81,1.93,1.18
		c0.1,0.06,0.2,0.12,0.3,0.18c0.71,0.4,1.43,0.77,2.17,1.12c0.05,0.02,0.1,0.05,0.15,0.07c0.03,0.01,0.06,0.03,0.09,0.04
		c0.06,0.03,0.13,0.06,0.19,0.08c0.59,0.27,1.2,0.53,1.81,0.77c0.15,0.06,0.31,0.12,0.46,0.18c0.75,0.28,1.51,0.55,2.28,0.79
		c0.09,0.03,0.18,0.05,0.27,0.08c0.69,0.21,1.38,0.39,2.09,0.55c0.19,0.05,0.38,0.09,0.58,0.13c0.79,0.17,1.58,0.33,2.38,0.45
		c0.06,0.01,0.13,0.02,0.19,0.02c0.75,0.11,1.5,0.19,2.26,0.25c0.21,0.02,0.42,0.03,0.64,0.05c0.83,0.05,1.66,0.09,2.49,0.09
		c0,0,0,0,0,0h0h0h0c0,0,0,0,0,0c0,0,0,0,0,0c0,0,0,0,0,0c0,0,0,0,0,0c0.1,0,0.2,0,0.3,0c0.42,0,0.84-0.01,1.26-0.03
		c0.52-0.02,1.04-0.06,1.55-0.1c0.1-0.01,0.21-0.02,0.31-0.02c0.03,0,0.05,0,0.08-0.01c0.08-0.01,0.15-0.02,0.22-0.02
		c0.9-0.09,1.8-0.22,2.68-0.37c0.16-0.03,0.31-0.05,0.47-0.08c0.48-0.09,0.95-0.19,1.42-0.29c0.1-0.02,0.2-0.05,0.3-0.07
		c0.13-0.03,0.27-0.06,0.4-0.1c0.23-0.06,0.47-0.12,0.7-0.18c0.08-0.02,0.17-0.05,0.25-0.07c0.04-0.01,0.09-0.02,0.13-0.04
		c0.96-0.27,1.9-0.57,2.83-0.91c0.02-0.01,0.04-0.02,0.06-0.03c0.01-0.01,0.03-0.01,0.04-0.02c0.42-0.16,0.83-0.32,1.24-0.49
		c0.53-0.22,1.06-0.46,1.59-0.7c0.03-0.01,0.05-0.02,0.08-0.04c0.89-0.43,1.76-0.89,2.61-1.38c0.1-0.06,0.21-0.12,0.31-0.18
		c0.05-0.03,0.09-0.06,0.14-0.09c0.48-0.29,0.96-0.59,1.43-0.9c0.27-0.18,0.53-0.36,0.79-0.54c0.13-0.09,0.26-0.19,0.39-0.28
		c0.74-0.53,1.46-1.08,2.16-1.66c0.05-0.04,0.1-0.07,0.15-0.11l18-14.95v0c0,0,0,0,0,0v0c2.05-1.7,4.1-3.39,6.15-5.09v0
		c1.62-1.34,3.23-2.68,4.85-4.02l6.24-5.24c2.87-2.43,5.73-4.88,8.57-7.35c5.75-4.81,12.19-9.92,20.2-7.91
		c7.23,1.82,12.61,8.74,12.61,16.19c0,9.22-7.47,16.7-16.7,16.7c-8.15,0-14.92-5.85-16.38-13.58l-16.58,13.91
		c6.17,11.92,18.61,20.07,32.96,20.07c20.49,0,37.1-16.61,37.1-37.1C348.97,263.09,332.36,246.48,311.87,246.48z M225.59,300.08
		C225.59,300.08,225.59,300.08,225.59,300.08C225.59,300.08,225.59,300.08,225.59,300.08c-0.01,0-0.01,0-0.01,0
		c-0.1-0.01-0.2-0.03-0.29-0.04c-0.02,0-0.03-0.01-0.05-0.01c-0.21-0.03-0.41-0.07-0.61-0.12c-0.04-0.01-0.08-0.02-0.12-0.03
		c-0.17-0.04-0.33-0.07-0.5-0.11c-0.12-0.03-0.23-0.06-0.35-0.09c-0.02-0.01-0.05-0.01-0.07-0.02c-0.41-0.11-0.81-0.24-1.2-0.38
		c-0.01,0-0.02-0.01-0.02-0.01c0,0,0,0,0,0c0,0,0,0,0,0c0,0,0,0,0,0c-0.19-0.07-0.38-0.14-0.57-0.22
		c-5.85-2.37-10.05-7.95-10.4-14.56c0,0,0,0,0-0.01l0,0c0,0,0,0,0,0l0,0c-0.02-0.26-0.03-0.53-0.04-0.79c0-0.04-0.01-0.07-0.01-0.11
		c0-0.02,0-0.05,0-0.07c0-0.09,0.01-0.19,0.01-0.28c0-0.01,0-0.02,0-0.03c0-0.03,0-0.07,0.01-0.1c0.01-0.4,0.02-0.8,0.06-1.19
		c0.02-0.16,0.04-0.32,0.06-0.47c0.02-0.1,0.03-0.2,0.05-0.3c0.01-0.06,0.02-0.12,0.03-0.18c0.04-0.22,0.06-0.45,0.1-0.67
		c0.04-0.19,0.08-0.39,0.13-0.58c0.01-0.06,0.03-0.12,0.05-0.17c0.04-0.13,0.07-0.27,0.11-0.4c0.04-0.13,0.06-0.27,0.1-0.4
		c0.13-0.44,0.29-0.86,0.46-1.28c0.03-0.07,0.05-0.14,0.08-0.21c0.19-0.46,0.4-0.91,0.63-1.35c0.01-0.02,0.02-0.04,0.03-0.06
		c2.79-5.32,8.36-8.95,14.78-8.95c0.83,0,1.64,0.08,2.44,0.2c0,0,0,0,0,0c0,0,0,0,0,0c0,0,0.01,0,0.01,0
		c0.1,0.01,0.2,0.03,0.29,0.04c0.02,0,0.03,0.01,0.05,0.01c0.21,0.03,0.41,0.07,0.61,0.12c0.04,0.01,0.08,0.02,0.12,0.03
		c0.17,0.04,0.33,0.07,0.5,0.11c0.12,0.03,0.23,0.06,0.35,0.09c0.02,0.01,0.05,0.01,0.07,0.02c0.41,0.11,0.81,0.24,1.2,0.38
		c0.01,0,0.02,0.01,0.02,0.01c0,0,0,0,0,0c0,0,0,0,0,0c0,0,0,0,0,0c0.19,0.07,0.38,0.14,0.57,0.22c5.85,2.37,10.05,7.95,10.4,14.56
		c0,0,0,0,0,0.01l0,0c0,0,0,0,0,0l0,0c0.02,0.26,0.03,0.53,0.04,0.79c0,0.04,0.01,0.07,0.01,0.11c0,0.03,0,0.05,0,0.08
		c0,0.09-0.01,0.18-0.01,0.28c0,0.01,0,0.02,0,0.03c0,0.03,0,0.07-0.01,0.1c-0.01,0.4-0.02,0.8-0.06,1.19
		c-0.02,0.16-0.04,0.32-0.06,0.47c-0.02,0.1-0.03,0.2-0.05,0.3c-0.01,0.06-0.02,0.12-0.03,0.18c-0.04,0.22-0.06,0.45-0.1,0.67
		c-0.04,0.19-0.08,0.39-0.13,0.58c-0.02,0.06-0.03,0.12-0.05,0.17c-0.04,0.13-0.07,0.27-0.11,0.4c-0.04,0.13-0.06,0.27-0.1,0.4
		c-0.13,0.44-0.29,0.86-0.46,1.28c-0.03,0.07-0.05,0.14-0.08,0.21c-0.19,0.46-0.4,0.91-0.63,1.35c-0.01,0.02-0.02,0.04-0.03,0.06
		c-2.79,5.32-8.36,8.95-14.78,8.95C227.2,300.28,226.39,300.2,225.59,300.08z"/>
	<g>
		<path class="st0" d="M154.24,375.1c9.09,0,15.96,2.83,20.54,8.42c4.58,5.59,6.87,13.2,6.87,22.83v40.94h-22.02v-36.56
			c0-10.17-4.17-15.29-12.59-15.29c-4.24,0-7.54,1.55-9.97,4.65c-2.42,3.1-3.64,7.34-3.64,12.79v34.34h-22.09V346.55h22.09v37.64
			c5.32-6.13,12.26-9.23,20.81-9.23V375.1z"/>
		<path class="st0" d="M231.14,449.24c-10.91,0-19.93-3.57-27.07-10.64c-7.14-7.07-10.71-15.89-10.71-26.46s3.57-19.39,10.71-26.46
			c7.14-7.07,16.16-10.64,27.07-10.64c10.91,0,19.93,3.5,27.07,10.57c7.14,7.07,10.71,15.89,10.71,26.46s-3.57,19.39-10.71,26.46
			c-7.14,7.07-16.16,10.64-27.07,10.64V449.24z M231.14,429.44c4.98,0,8.96-1.62,11.92-4.85s4.44-7.41,4.44-12.46
			c0-5.05-1.48-9.16-4.44-12.39s-6.94-4.85-11.92-4.85c-4.98,0-8.96,1.62-11.92,4.85s-4.44,7.34-4.44,12.39
			c0,5.05,1.48,9.16,4.44,12.39s6.94,4.85,11.92,4.85V429.44z"/>
		<path class="st0" d="M323.66,375.03c9.56,0,17.64,3.5,24.24,10.57s9.9,15.89,9.9,26.46s-3.3,19.39-9.9,26.46
			c-6.6,7.07-14.68,10.64-24.24,10.64c-8.15,0-14.88-2.83-20.2-8.42v35.42h-22.09v-99.26h22.09v6.46
			c5.18-5.59,11.92-8.42,20.27-8.42L323.66,375.03z M319.55,429.71c4.78,0,8.69-1.62,11.78-4.92c3.1-3.3,4.65-7.54,4.65-12.73
			s-1.55-9.36-4.65-12.59s-7-4.85-11.78-4.85c-4.92,0-8.96,1.62-12.12,4.85s-4.71,7.41-4.71,12.59c0,5.25,1.62,9.49,4.78,12.73
			c3.16,3.23,7.21,4.85,12.12,4.85L319.55,429.71z"/>
		<path class="st0" d="M99.02,418.53c0-7.47-2.29-13.2-6.87-17.17c-4.58-3.97-11.11-7.27-19.53-9.9l-24.31-7.74
			c-4.31-1.28-6.46-3.57-6.46-6.87c0-2.29,1.14-4.17,3.5-5.66c2.36-1.48,5.45-2.22,9.29-2.22c4.65,0,8.89,1.08,12.73,3.23
			c3.84,2.15,6.73,4.92,8.69,8.35l21.08-6.2c-2.63-7.07-7.88-13.06-15.69-17.98c-7.81-4.92-16.83-7.34-27-7.34
			c-10.3,0-18.85,2.83-25.66,8.42c-6.8,5.59-10.17,12.39-10.1,20.4c-0.07,6.06,1.89,11.31,5.93,15.76
			c4.04,4.44,9.43,7.74,16.16,9.83l24.85,7.68c6.94,2.22,10.37,5.32,10.37,9.29c0,2.49-1.41,4.65-4.17,6.46
			c-2.76,1.82-6.4,2.69-10.91,2.69c-6.06,0-11.25-1.48-15.56-4.44s-7.41-6.8-9.36-11.58l-21.82,6.73
			c3.03,8.22,8.48,15.15,16.36,20.81c11.83,8.49,28.9,10.65,42.88,7.11c8.88-2.25,16.94-7.63,21.73-15.52
			c0.26-0.42,1.28-3.16,1.69-3.3C98.29,426.05,99.02,422.44,99.02,418.53z"/>
	</g>
	<path class="st0" d="M407.29,316.37c-5.79,2.29-11.51,3.43-17.24,3.43c-8.28,0-14.48-2.36-18.65-7.07
		c-4.17-4.71-6.26-11.18-6.26-19.46v-25.66h-10.91v-19.26h10.91v-22.09h22.09v22.09h18.92v19.26h-18.92v25.66
		c0,4.92,2.42,7.34,7.27,7.34c2.69,0,5.18-0.61,7.47-1.82L407.29,316.37z"/>
	<path class="st0" d="M451.62,320.68c-11.51,0-20.81-3.43-27.94-10.3c-7.14-6.87-10.71-15.76-10.71-26.73
		c0-10.77,3.43-19.66,10.3-26.67c6.87-7,15.82-10.5,26.93-10.5c11.31,0,20.27,3.43,26.87,10.3c6.6,6.87,9.9,15.55,9.9,26.06
		c0,2.76-0.2,5.18-0.54,7.27h-51.98c1.68,8.08,7.54,12.12,17.57,12.12c6.73,0,11.45-2.36,14.07-7.14l19.86,5.79
		c-2.22,5.05-6.33,9.63-12.39,13.67c-6.06,4.04-13.33,6.06-21.88,6.06L451.62,320.68z M465.49,276.91c-0.34-3.3-1.89-6.13-4.71-8.48
		s-6.4-3.5-10.71-3.5c-4.31,0-7.88,1.21-10.64,3.57c-2.76,2.36-4.38,5.18-4.92,8.42H465.49z"/>
	<path class="st0" d="M519.74,257.72c2.09-3.84,5.05-6.73,8.82-8.62c3.77-1.89,8.15-2.49,13.2-1.89v20.67
		c-7.54-1.28-13.06-0.2-16.63,3.23c-3.57,3.43-5.32,9.49-5.32,18.18v29.36h-22.09v-70.3h22.09v9.49L519.74,257.72z"/>
	<path class="st0" d="M99.02,289.98c0-7.47-2.29-13.2-6.87-17.17c-4.58-3.97-11.11-7.27-19.53-9.9l-24.31-7.74
		c-4.31-1.28-6.46-3.57-6.46-6.87c0-2.29,1.14-4.17,3.5-5.66c2.36-1.48,5.45-2.22,9.29-2.22c4.65,0,8.89,1.08,12.73,3.23
		c3.84,2.15,6.73,4.92,8.69,8.35l21.08-6.2c-2.63-7.07-7.88-13.06-15.69-17.98c-7.81-4.92-16.83-7.34-27-7.34
		c-10.3,0-18.85,2.83-25.66,8.42c-6.8,5.59-10.17,12.39-10.1,20.4c-0.07,6.06,1.89,11.31,5.93,15.76c4.04,4.44,9.43,7.74,16.16,9.83
		l24.85,7.68c6.94,2.22,10.37,5.32,10.37,9.29c0,2.49-1.41,4.65-4.17,6.46c-2.76,1.82-6.4,2.69-10.91,2.69
		c-6.06,0-11.25-1.48-15.56-4.44s-7.41-6.8-9.36-11.58l-21.82,6.73c3.03,8.22,8.48,15.15,16.36,20.81
		c11.83,8.49,28.9,10.65,42.88,7.11c8.88-2.25,16.94-7.63,21.73-15.52c0.26-0.42,1.28-3.16,1.69-3.3
		C98.29,297.5,99.02,293.89,99.02,289.98z"/>
</g>
</svg>
