<?xml version="1.0" encoding="UTF-8"?>
<svg version="1.1" xmlns="http://www.w3.org/2000/svg" width="1024" height="299">
<path d="M0 0 C0.77859375 0.350625 1.5571875 0.70125 2.359375 1.0625 C8.81860568 4.26984213 13.89194996 8.97514296 19 14 C20.00160156 14.98226563 20.00160156 14.98226563 21.0234375 15.984375 C25.57603481 20.77853869 29.00555798 26.04831882 32.5 31.625 C39.28762817 42.37381479 45.62355381 47.91399105 57.95703125 51.58203125 C72.60028096 54.57787775 85.61029747 48.16124928 97.9375 41 C99.10991273 40.33265912 100.28318751 39.66683068 101.45727539 39.00244141 C103.83117027 37.65797873 106.20201789 36.30840391 108.5703125 34.95410156 C146.73866564 13.20726938 146.73866564 13.20726938 163 15 C173.20077072 17.98900389 179.55344636 25.02753952 186 33 C186.46293457 33.56847656 186.92586914 34.13695312 187.40283203 34.72265625 C190.21406061 38.19517901 192.96079838 41.71266322 195.67138672 45.26416016 C197.00077342 47.00101048 198.34491386 48.72561002 199.69140625 50.44921875 C200.52413684 51.52810641 201.35620025 52.60750946 202.1875 53.6875 C202.92355469 54.64011719 203.65960937 55.59273437 204.41796875 56.57421875 C206 59 206 59 206 62 C204.9790625 62.55945313 203.958125 63.11890625 202.90625 63.6953125 C191.95285567 69.72506882 181.13766672 75.97248299 170.34765625 82.2890625 C160.66164127 87.95811975 150.93990775 93.56445521 141.20605469 99.15087891 C138.00635464 100.9963349 134.81898701 102.86177789 131.6328125 104.73046875 C129.60959319 105.90402207 127.5861648 107.07721504 125.5625 108.25 C124.65814209 108.7869751 123.75378418 109.3239502 122.82202148 109.87719727 C113.10782974 115.46590025 103.24503629 118.74468678 92.125 115.875 C79.91332646 111.87238773 73.96627849 103.60931145 67.25 93.1875 C56.15877726 76.4007845 41.46652661 64.64541035 21.4453125 60.50390625 C-11.43194872 55.69532723 -40.29461567 74.65139635 -67.18301392 90.75306702 C-76.1708142 96.13207289 -85.25539149 101.33311769 -94.36157227 106.50854492 C-95.44752686 107.12576416 -96.53348145 107.7429834 -97.65234375 108.37890625 C-98.70341309 108.97582275 -99.75448242 109.57273926 -100.83740234 110.18774414 C-105.04641765 112.59962623 -109.22318177 115.06505568 -113.39477539 117.54101562 C-121.79833538 122.24719822 -130.47575341 123.5397222 -139.9296875 121.30859375 C-152.8855205 117.01989003 -158.83698883 108.75373642 -166.1875 97.71484375 C-177.02280524 81.55054484 -190.96334788 69.72956596 -210.5 65.6875 C-242.52597894 60.93614221 -270.37803023 78.52322841 -296.75878906 94.09716797 C-303.32336062 97.95106001 -309.93414067 101.72551197 -316.53930664 105.50927734 C-322.51569798 108.94560098 -328.41647235 112.47379529 -334.26953125 116.11572266 C-348.27527435 124.7724982 -361.84780798 129.96408405 -378.44921875 126.22265625 C-392.06100395 121.60877007 -401.49277119 112.22329819 -410 101 C-411.59682336 99.03567434 -413.20092098 97.077238 -414.8125 95.125 C-416.21071596 93.41861622 -417.60666193 91.71036911 -419 90 C-420.11955078 88.66582031 -420.11955078 88.66582031 -421.26171875 87.3046875 C-423 85 -423 85 -423 83 C-422.50000488 82.71503662 -422.00000977 82.43007324 -421.48486328 82.13647461 C-410.78576343 76.03632237 -400.10156569 69.91120776 -389.4375 63.75 C-377.42079294 56.80919279 -365.37684919 49.91674516 -353.32388306 43.03919983 C-348.55546794 40.31801517 -343.78969058 37.59223816 -339.02462769 34.8651886 C-334.92597286 32.51988418 -330.82474583 30.17913566 -326.72265625 27.83984375 C-322.34798426 25.34479085 -317.98153406 22.83623827 -313.62109375 20.31640625 C-290.61202508 7.06769855 -266.53641625 -4.37016493 -239.4375 2.625 C-228.77877826 6.17790725 -220.95115462 12.1840691 -213 20 C-212.40703125 20.58007812 -211.8140625 21.16015625 -211.203125 21.7578125 C-206.96456653 26.25875792 -203.83501313 31.34969145 -200.5625 36.5625 C-194.12609547 46.74011238 -187.81901333 52.83937339 -176.1796875 56.5859375 C-173.06568193 57.17748695 -170.04311507 57.21096778 -166.875 57.25 C-165.63492187 57.27578125 -164.39484375 57.3015625 -163.1171875 57.328125 C-153.49729027 56.89856022 -145.53296915 52.41370114 -137.375 47.6875 C-136.28743408 47.06794434 -135.19986816 46.44838867 -134.0793457 45.81005859 C-130.71198314 43.88619887 -127.35436 41.94643043 -124 40 C-122.99533691 39.41718262 -121.99067383 38.83436523 -120.95556641 38.23388672 C-116.0522245 35.3838651 -111.15615548 32.52152984 -106.26171875 29.65625 C-30.2071857 -14.81126525 -30.2071857 -14.81126525 0 0 Z " fill="#EAE8DF" transform="translate(818,4)"/>
<path d="M0 0 C10.60088044 -0.47241 20.60448584 2.69683065 29.00390625 9.15234375 C33.43676146 13.27267856 36.64654083 17.11960855 38.00390625 23.15234375 C38.66390625 23.15234375 39.32390625 23.15234375 40.00390625 23.15234375 C40.27332031 22.57097656 40.54273437 21.98960937 40.8203125 21.390625 C45.75043669 12.06732084 54.97048347 5.73326272 64.75390625 2.27734375 C76.45894637 -1.10549586 89.61506495 -1.14076915 100.66015625 4.51171875 C111.77067846 11.69652311 119.41586912 22.38956615 122.51734734 35.28757286 C123.76700777 41.12027752 124.2841093 46.59425241 124.23095703 52.54931641 C124.23124908 53.42859802 124.23154114 54.30787964 124.23184204 55.21380615 C124.23046359 58.08144467 124.21497334 60.94881388 124.19921875 63.81640625 C124.19548333 65.81993467 124.19263886 67.82346494 124.19064331 69.82699585 C124.18304854 75.07123967 124.1634362 80.3153707 124.14123535 85.55957031 C124.12068691 90.92251053 124.11162244 96.28546917 124.1015625 101.6484375 C124.08018601 112.14978882 124.04610084 122.65105687 124.00390625 133.15234375 C119.4649292 133.17699767 114.92599082 133.19518164 110.38696289 133.20727539 C108.84170859 133.21231515 107.29645909 133.21914695 105.7512207 133.2277832 C103.53465596 133.23986451 101.31815407 133.24557548 99.1015625 133.25 C98.05936302 133.25774193 98.05936302 133.25774193 96.99610901 133.26564026 C95.33161295 133.26583652 93.66725126 133.21423504 92.00390625 133.15234375 C90.27276221 131.42119971 90.87398732 129.19105933 90.86045837 126.88282776 C90.86125145 125.74997597 90.86125145 125.74997597 90.86206055 124.59423828 C90.85858612 123.80221512 90.85511169 123.01019196 90.85153198 122.19416809 C90.84415889 120.46664259 90.83882183 118.73910751 90.83524132 117.01156998 C90.82808436 114.26958791 90.81241941 111.52778571 90.79389954 108.78585815 C90.74142412 100.98682264 90.69354159 93.18787973 90.67797852 85.38867188 C90.66784149 80.62162844 90.63836222 75.85502882 90.59665871 71.08816147 C90.58441341 69.27749886 90.57921552 67.46677333 90.58145714 65.65607071 C90.59182067 54.54196311 90.5716782 44.02167053 83.69140625 34.65234375 C79.24741685 30.51840012 75.05903085 28.99976915 69.06640625 28.71484375 C61.94435955 28.98461825 57.17331688 31.64958831 52.19140625 36.65234375 C44.44997128 46.52065648 45.53512052 59.92121723 45.4921875 71.82421875 C45.4753086 73.60070002 45.45715413 75.37716957 45.43778992 77.15362549 C45.39063205 81.78947285 45.36060272 86.42527272 45.33435059 91.0612793 C45.3043708 95.80787531 45.2579011 100.55430819 45.21289062 105.30078125 C45.12724749 114.58456803 45.06125795 123.86833905 45.00390625 133.15234375 C34.44390625 133.15234375 23.88390625 133.15234375 13.00390625 133.15234375 C12.97417725 129.80891846 12.97417725 129.80891846 12.94384766 126.39794922 C12.87653733 118.98193888 12.79890735 111.5660614 12.71637917 104.15020561 C12.66671803 99.65990073 12.62038891 95.16961601 12.58203125 90.67919922 C12.54479267 86.33483842 12.498336 81.99065996 12.44584274 77.64645767 C12.42750128 76.00015632 12.41232118 74.35381621 12.40056229 72.70745468 C12.85945684 52.28091219 12.85945684 52.28091219 5.00390625 34.15234375 C0.08660766 29.72924602 -4.95023139 28.796306 -11.36328125 28.87109375 C-16.7382621 29.44527568 -20.52242751 31.98711928 -24.68359375 35.27734375 C-31.33070139 43.54131541 -33.1177197 51.65680048 -33.20141602 62.08544922 C-33.21131561 62.85685745 -33.22121521 63.62826569 -33.23141479 64.42304993 C-33.26282689 66.95517989 -33.28770636 69.48732857 -33.3125 72.01953125 C-33.33308708 73.78216012 -33.354084 75.54478424 -33.37547302 77.30740356 C-33.43051258 81.93347316 -33.48000132 86.55958596 -33.52832031 91.18572998 C-33.57866808 95.91161925 -33.63428467 100.63744623 -33.68945312 105.36328125 C-33.79681295 114.6262507 -33.89781938 123.88927345 -33.99609375 133.15234375 C-44.55609375 133.15234375 -55.11609375 133.15234375 -65.99609375 133.15234375 C-66.1280693 120.48444581 -66.25873432 107.81653606 -66.38724518 95.14860249 C-66.4470009 89.26304108 -66.50727691 83.37748608 -66.56884766 77.49194336 C-66.82773935 52.71093147 -67.06505408 27.93496104 -66.99609375 3.15234375 C-57.42609375 3.15234375 -47.85609375 3.15234375 -37.99609375 3.15234375 C-37.50109375 10.08234375 -37.50109375 10.08234375 -36.99609375 17.15234375 C-36.66609375 18.14234375 -36.33609375 19.13234375 -35.99609375 20.15234375 C-35.57199219 19.64445312 -35.14789063 19.1365625 -34.7109375 18.61328125 C-26.19067187 8.6136728 -18.40500023 3.19094015 -5.24609375 0.33984375 C-3.4966395 0.2389137 -1.7472818 0.13335419 0 0 Z " fill="#EAE8DF" transform="translate(66.99609375,162.84765625)"/>
<path d="M0 0 C11.22 0 22.44 0 34 0 C34.33 59.73 34.66 119.46 35 181 C25.1 181 15.2 181 5 181 C3.40587716 177.81175432 3.89825265 174.37103338 3.9375 170.875 C3.94201172 170.12089844 3.94652344 169.36679687 3.95117188 168.58984375 C3.96296501 166.72652873 3.98090058 164.86325445 4 163 C0.64443304 166.30001905 0.64443304 166.30001905 -2.52734375 169.7734375 C-9.29329875 177.45776312 -20.77933243 183.12394278 -31 184 C-47.38659534 184.99873154 -60.99651899 181.93184958 -73.75 171.25 C-86.82082882 158.94941645 -93.62876472 141.41120378 -94.23828125 123.6640625 C-94.65111353 101.4006074 -91.22735598 80.64923925 -75.27685547 63.96166992 C-64.55995635 53.41182079 -51.35564306 48.33028433 -36.4375 47.75 C-22.49403833 47.96190671 -10.85410586 52.14589414 -1 62 C-0.67 41.54 -0.34 21.08 0 0 Z M-52 86 C-60.4261789 98.44063635 -61.52961411 113.89755094 -59.53125 128.40234375 C-57.37540206 138.37314049 -52.66702403 147.2975136 -44 153 C-37.41368519 156.58227829 -30.16825016 158.2266702 -22.76171875 156.46875 C-14.73312526 153.98595806 -8.75127344 149.95966722 -4 143 C0.31052709 134.70255897 0.62485511 126.32254042 0.52148438 117.19311523 C0.49999428 114.9368997 0.52140149 112.68385499 0.546875 110.42773438 C0.56908696 99.28920383 -1.00076515 90.07068769 -8.97265625 81.76171875 C-15.95689696 75.6925616 -22.57791276 74.26012596 -31.73828125 74.65625 C-40.48929774 75.57851282 -46.1438398 79.42721599 -52 86 Z " fill="#EAE8DF" transform="translate(561,115)"/>
<path d="M0 0 C11.07720276 9.73948971 15.48325091 23.24471047 16.84375 37.62109375 C16.96913189 40.52605632 16.97092011 43.42473056 16.95727539 46.33203125 C16.95742142 47.16225296 16.95756744 47.99247467 16.9577179 48.84785461 C16.95702695 51.56396187 16.94927322 54.27999863 16.94140625 56.99609375 C16.93953916 58.89038048 16.93811663 60.78466769 16.93711853 62.67895508 C16.93331626 67.64371087 16.92350571 72.60843701 16.91241455 77.57318115 C16.90215101 82.64774169 16.89761035 87.72230706 16.89257812 92.796875 C16.88188123 102.73829632 16.86430316 112.67968792 16.84375 122.62109375 C5.62375 122.62109375 -5.59625 122.62109375 -17.15625 122.62109375 C-17.17083252 120.19467529 -17.18541504 117.76825684 -17.20043945 115.26831055 C-17.25095938 107.21761828 -17.31758441 99.1671159 -17.39196491 91.11661053 C-17.43653817 86.2394599 -17.4758225 81.3623903 -17.50268555 76.48510742 C-17.52884934 71.77112436 -17.56934263 67.05745532 -17.61943626 62.34366798 C-17.63601705 60.55254865 -17.64758569 58.76137512 -17.65386391 56.97019005 C-17.34602277 39.07349971 -17.34602277 39.07349971 -25.15625 23.62109375 C-31.82009255 18.94645793 -38.11878712 17.51413778 -46.15625 18.62109375 C-53.72869318 20.42405641 -58.30821973 24.00792169 -62.40625 30.62109375 C-65.838007 36.4232396 -66.31102094 41.00391479 -66.36157227 47.69433594 C-66.37147186 48.5044664 -66.38137146 49.31459686 -66.39157104 50.14927673 C-66.42311215 52.82214453 -66.44791423 55.49503009 -66.47265625 58.16796875 C-66.49323216 60.02313697 -66.5142288 61.87830058 -66.53562927 63.73345947 C-66.59078416 68.61273452 -66.64022246 73.49205141 -66.68847656 78.37139893 C-66.73873967 83.35180377 -66.79440062 88.33214796 -66.84960938 93.3125 C-66.95711044 103.08198132 -67.05807438 112.85151426 -67.15625 122.62109375 C-78.37625 122.62109375 -89.59625 122.62109375 -101.15625 122.62109375 C-101.48625 79.72109375 -101.81625 36.82109375 -102.15625 -7.37890625 C-92.25625 -7.37890625 -82.35625 -7.37890625 -72.15625 -7.37890625 C-71.49625 -1.76890625 -70.83625 3.84109375 -70.15625 9.62109375 C-69.0425 8.25984375 -67.92875 6.89859375 -66.78125 5.49609375 C-49.81488157 -13.49788989 -19.77153426 -15.73092309 0 0 Z " fill="#EAE8DF" transform="translate(437.15625,173.37890625)"/>
<path d="M0 0 C11.14309146 11.12124226 15.03059181 26.03698501 15.18164062 41.47729492 C15.19408058 42.54719162 15.19408058 42.54719162 15.20677185 43.63870239 C15.22406399 45.17621431 15.23925948 46.71375099 15.25254822 48.25130272 C15.27378088 50.69578322 15.30078902 53.14014224 15.32922363 55.58454895 C15.38864762 60.78157815 15.44086539 65.9786666 15.4921875 71.17578125 C15.55176748 77.18680095 15.61441036 83.19776146 15.68406677 89.20867348 C15.71028565 91.59687458 15.73131656 93.98508296 15.7520752 96.37333679 C15.76871114 97.86632565 15.78558574 99.35931187 15.80273438 100.85229492 C15.81526245 102.13690109 15.82779053 103.42150726 15.84069824 104.74504089 C16.03436164 110.16958629 16.54141653 115.57902956 16.9921875 120.98828125 C6.7621875 120.98828125 -3.4678125 120.98828125 -14.0078125 120.98828125 C-14.9978125 115.04828125 -14.9978125 115.04828125 -16.0078125 108.98828125 C-17.1628125 109.87515625 -18.3178125 110.76203125 -19.5078125 111.67578125 C-33.39504672 122.02408935 -46.23635781 125.34529742 -63.6015625 123.75 C-72.94618057 122.07406306 -82.35712137 116.65405675 -88.0078125 108.98828125 C-94.60334157 97.74148337 -96.6391588 87.08050835 -94.546875 74.13671875 C-91.34549366 62.27277615 -84.29564395 53.33962384 -73.80859375 47.078125 C-56.51573535 37.95725568 -38.32041791 35.49519345 -19.0078125 35.98828125 C-20.19459092 26.76098439 -20.19459092 26.76098439 -25.0078125 18.98828125 C-34.37463968 12.24416568 -44.91904856 12.34506357 -56.0078125 13.98828125 C-63.87190515 15.72761411 -70.92968074 18.17697953 -78.0078125 21.98828125 C-78.6678125 21.98828125 -79.3278125 21.98828125 -80.0078125 21.98828125 C-81.07349954 18.74566267 -82.10605512 15.49341599 -83.1328125 12.23828125 C-83.43574219 11.31789062 -83.73867187 10.3975 -84.05078125 9.44921875 C-84.46650391 8.11503906 -84.46650391 8.11503906 -84.890625 6.75390625 C-85.15246582 5.93696289 -85.41430664 5.12001953 -85.68408203 4.27832031 C-86.08437473 1.44668718 -85.62984262 0.31478811 -84.0078125 -2.01171875 C-81.73131952 -3.23041722 -79.65646925 -4.17794808 -77.2578125 -5.07421875 C-76.25886963 -5.45936646 -76.25886963 -5.45936646 -75.23974609 -5.85229492 C-52.24252708 -14.40226454 -19.85930772 -16.9858914 0 0 Z M-56.65234375 67.43359375 C-60.45433556 71.61907176 -61.80861823 75.83698314 -62.3203125 81.36328125 C-61.82665492 87.08970916 -60.60029564 91.93232517 -56.1953125 95.86328125 C-49.41393232 100.38420137 -43.86163305 100.48958218 -36.0078125 98.98828125 C-28.98869287 96.92602663 -24.09388995 91.91597107 -20.0078125 85.98828125 C-17.35979082 80.38669693 -17.78117498 74.67244132 -17.8828125 68.61328125 C-17.89183594 67.59105469 -17.90085937 66.56882812 -17.91015625 65.515625 C-17.9336082 63.00626603 -17.96642895 60.49739789 -18.0078125 57.98828125 C-31.05850649 57.7316201 -46.33357818 58.36484491 -56.65234375 67.43359375 Z " fill="#EAE8DF" transform="translate(300.0078125,175.01171875)"/>
<path d="M0 0 C9.9 0 19.8 0 30 0 C30.4375 9.9375 30.4375 9.9375 30.56811523 13.07397461 C30.6252771 14.28839233 30.6252771 14.28839233 30.68359375 15.52734375 C30.72025146 16.35999756 30.75690918 17.19265137 30.79467773 18.05053711 C30.79367103 20.00338858 30.79367103 20.00338858 32 21 C32.27972656 20.50371094 32.55945313 20.00742188 32.84765625 19.49609375 C38.51077028 9.89975583 45.24475506 3.67154725 56.125 0.75 C62.34841246 -0.20744807 68.7033684 0 75 0 C75 9.9 75 19.8 75 30 C71.0709375 29.87625 71.0709375 29.87625 67.0625 29.75 C60.24650933 29.67897992 54.79494795 30.07163529 49 34 C48.35675781 34.43570313 47.71351563 34.87140625 47.05078125 35.3203125 C40.12647108 40.63330521 37.68153336 47.63390455 36 56 C35.81080422 58.56228103 35.70754742 61.13205093 35.68115234 63.70117188 C35.66608391 64.78557053 35.66608391 64.78557053 35.65071106 65.89187622 C35.62013781 68.25082699 35.60291696 70.60966569 35.5859375 72.96875 C35.56720496 74.61642402 35.54763002 76.26408867 35.5272522 77.91174316 C35.47614516 82.22540734 35.43640545 86.53910254 35.39910889 90.85290527 C35.35185706 96.04103618 35.2903519 101.22901571 35.23126221 106.41702271 C35.14331147 114.27795331 35.07336036 122.13885875 35 130 C23.78 130 12.56 130 1 130 C0.67 87.1 0.34 44.2 0 0 Z " fill="#EAE8DF" transform="translate(671,166)"/>
<path d="M0 0 C10.89 0 21.78 0 33 0 C33 42.9 33 85.8 33 130 C22.11 130 11.22 130 0 130 C0 87.1 0 44.2 0 0 Z " fill="#EAE8DF" transform="translate(760,166)"/>
<path d="M0 0 C10.89 0 21.78 0 33 0 C33 42.9 33 85.8 33 130 C22.11 130 11.22 130 0 130 C0 87.1 0 44.2 0 0 Z " fill="#EAE8DF" transform="translate(617,166)"/>
</svg>
