<?xml version="1.0" encoding="UTF-8"?>
<svg version="1.1" xmlns="http://www.w3.org/2000/svg" width="1021" height="228">
<path d="M0 0 C2.5 0.125 2.5 0.125 3.5 1.125 C5.16301951 1.39821035 6.83071112 1.64315432 8.5 1.875 C17.56049975 3.48288661 24.78877831 7.83446942 30.5 15.125 C30.5 15.785 30.5 16.445 30.5 17.125 C31.16 17.125 31.82 17.125 32.5 17.125 C32.76554687 16.526875 33.03109375 15.92875 33.3046875 15.3125 C37.18942037 8.20318495 45.26899217 4.83540742 52.4375 1.9375 C63.78816148 -1.07389998 72.76786977 0.70298833 82.86328125 6.4765625 C92.23197434 12.3654553 98.06641339 20.15414237 101.06051636 30.8427124 C102.02704361 35.86199628 101.84823321 41.00746084 101.87109375 46.1015625 C101.88012222 47.34497406 101.8891507 48.58838562 101.89845276 49.86947632 C101.91292235 52.49010825 101.92183378 55.11077605 101.92553711 57.73144531 C101.92986416 60.41446017 101.95085634 63.09652472 101.98706055 65.77929688 C102.03575624 69.65784965 102.05130976 73.53523614 102.05859375 77.4140625 C102.07812607 78.61310211 102.09765839 79.81214172 102.11778259 81.04751587 C102.06755185 90.28922266 102.06755185 90.28922266 99.16040039 93.41943359 C96.5 95.125 96.5 95.125 93.375 95.125 C90.41507444 94.09546068 89.35660854 93.57332104 87.5 91.125 C87.11473083 88.67863464 87.11473083 88.67863464 87.09936523 85.73901367 C87.07935707 84.08665962 87.07935707 84.08665962 87.0589447 82.40092468 C87.05877098 80.6149865 87.05877098 80.6149865 87.05859375 78.79296875 C87.04538589 77.56846512 87.03217804 76.34396149 87.01856995 75.08235168 C86.97758588 71.15904496 86.95598543 67.23597268 86.9375 63.3125 C86.91370224 59.39981129 86.88553118 55.4873432 86.84571838 51.57478333 C86.82140115 49.13857185 86.8065103 46.70224378 86.80210876 44.26591492 C86.78682884 42.59937614 86.78682884 42.59937614 86.77124023 40.89916992 C86.76482765 39.44047737 86.76482765 39.44047737 86.75828552 37.95231628 C86.31029457 33.04839401 84.62688312 28.93702685 82 24.8125 C81.5771875 24.13574219 81.154375 23.45898438 80.71875 22.76171875 C79.58162203 20.97818902 79.58162203 20.97818902 77.5 20.125 C77.5 19.465 77.5 18.805 77.5 18.125 C76.778125 18.00125 76.05625 17.8775 75.3125 17.75 C72.5 17.125 72.5 17.125 70.3125 16.0625 C64.80575264 14.22691755 59.37194879 14.30814962 54.0625 16.625 C53.216875 17.12 52.37125 17.615 51.5 18.125 C50.51 18.125 49.52 18.125 48.5 18.125 C48.5 18.785 48.5 19.445 48.5 20.125 C47.7575 20.62 47.015 21.115 46.25 21.625 C41.776512 25.69180727 39.90264664 30.99626625 39.13497925 36.96136475 C38.9952587 40.01960346 38.97226933 43.0559032 38.99609375 46.1171875 C38.98667252 47.22554962 38.97725128 48.33391174 38.96754456 49.4758606 C38.93907497 52.98409937 38.93581144 56.49165545 38.9375 60 C38.93389241 63.5296669 38.92440787 67.05884518 38.89674377 70.58840942 C38.87994724 72.77639551 38.87708591 74.9645435 38.88975525 77.15255737 C38.88287186 78.14103668 38.87598846 79.12951599 38.86889648 80.14794922 C38.86985825 81.01491425 38.87082001 81.88187927 38.87181091 82.77511597 C38.41532565 85.66015077 37.49482372 87.01601994 35.5 89.125 C31.91690981 90.37129224 30.27820129 90.50044674 26.84228516 88.84277344 C23.13389375 84.53989527 23.83121723 80.14010581 23.8984375 74.640625 C23.89043121 73.51106384 23.88242493 72.38150269 23.87417603 71.2177124 C23.85107306 67.60311174 23.86057609 63.98963133 23.875 60.375 C23.87885351 56.77485958 23.87533749 53.17521907 23.85440063 49.57513428 C23.8423624 47.33578442 23.844896 45.09629446 23.86410522 42.85699463 C23.83424582 34.46395331 22.69588676 27.32088676 16.5 21.125 C9.82489729 16.26662627 3.82550094 13.96972687 -4.5 15.125 C-11.54908687 17.28479732 -11.54908687 17.28479732 -16.5 22.125 C-17.16 22.125 -17.82 22.125 -18.5 22.125 C-18.933125 23.23875 -18.933125 23.23875 -19.375 24.375 C-20.5 27.125 -20.5 27.125 -21.5625 29.0625 C-23.55324921 33.44214827 -23.61923182 38.14449055 -23.5625 42.88671875 C-23.55379883 43.99345947 -23.54509766 45.1002002 -23.53613281 46.24047852 C-23.52420898 47.41924561 -23.51228516 48.5980127 -23.5 49.8125 C-23.46524047 59.94022456 -23.49706469 70.06252702 -23.75 80.1875 C-23.77126953 81.91649536 -23.77126953 81.91649536 -23.79296875 83.68041992 C-23.82519531 84.74623291 -23.85742188 85.8120459 -23.890625 86.91015625 C-23.91157227 87.84738525 -23.93251953 88.78461426 -23.95410156 89.75024414 C-24.5 92.125 -24.5 92.125 -26.31152344 93.96655273 C-29.57835751 95.69581731 -31.98266039 94.90663102 -35.5 94.125 C-37.5 93.125 -37.5 93.125 -38.5 90.125 C-38.60247486 88.42484581 -38.64844316 86.72101466 -38.66113281 85.01782227 C-38.67074036 83.97566055 -38.6803479 82.93349884 -38.69024658 81.85975647 C-38.6966214 80.16767311 -38.6966214 80.16767311 -38.703125 78.44140625 C-38.70882507 77.27552475 -38.71452515 76.10964325 -38.72039795 74.90843201 C-38.72985471 72.434488 -38.7363846 69.96053135 -38.74023438 67.48657227 C-38.74988135 63.73365626 -38.7808747 59.98130169 -38.8125 56.22851562 C-38.81903615 53.82031574 -38.82428421 51.41211194 -38.828125 49.00390625 C-38.8404718 47.89406876 -38.8528186 46.78423126 -38.86553955 45.64076233 C-38.83518506 34.81291822 -37.15382843 24.88995813 -30.5 16.125 C-29.89027344 15.30128906 -29.28054688 14.47757813 -28.65234375 13.62890625 C-22.64680763 6.64242956 -14.67736764 3.42837286 -5.8359375 1.6328125 C-3.10281008 1.03865437 -2.84093439 0.14204672 0 0 Z " fill="#FDFDFD" transform="translate(313.5,70.875)"/>
<path d="M0 0 C1.20415677 2.40831353 1.13625449 3.93345932 1.15390015 6.62413025 C1.16250061 7.59858597 1.17110107 8.57304169 1.17996216 9.57702637 C1.18422211 10.64980835 1.18848206 11.72259033 1.19287109 12.82788086 C1.20513733 14.5182119 1.20513733 14.5182119 1.21765137 16.24269104 C1.24252908 19.98340313 1.25902482 23.7240773 1.2734375 27.46484375 C1.27876118 28.73904238 1.28408485 30.013241 1.28956985 31.32605171 C1.31080143 36.67815965 1.32993263 42.03025424 1.34119225 47.38239193 C1.35744503 55.05772155 1.39065899 62.73254605 1.44759309 70.40768522 C1.49090429 76.45185633 1.50693106 82.49579671 1.51332474 88.54013252 C1.52006376 91.11386275 1.53535379 93.68758487 1.55921555 96.2612133 C1.59064657 99.85544673 1.59093681 103.44839127 1.58349609 107.04272461 C1.59990143 108.11348236 1.61630676 109.18424011 1.63320923 110.28744507 C1.61051679 112.95340777 1.55449167 115.3926683 1 118 C-1.34115601 120.19264221 -1.34115601 120.19264221 -4 121 C-7.10929595 120.87562816 -9.12652641 120.65666869 -11.63671875 118.76953125 C-13.43534362 116.43492648 -13.49802982 114.73034084 -13.6875 111.8125 C-13.75324219 110.91144531 -13.81898438 110.01039063 -13.88671875 109.08203125 C-13.94279297 108.05142578 -13.94279297 108.05142578 -14 107 C-14.63615234 107.79664063 -14.63615234 107.79664063 -15.28515625 108.609375 C-22.60704334 117.42782362 -29.75650687 120.32007573 -41 122 C-54.78803087 123.25718418 -66.14120797 120.76032211 -77.09765625 111.84375 C-87.43122933 101.82845946 -92.07201695 88.30742538 -92.375 74.25 C-92.3380223 61.03509305 -87.82474702 49.54721552 -78.93359375 39.71484375 C-73.59523814 34.60568409 -67.85270904 31.64226712 -61 29 C-59.989375 28.5875 -58.97875 28.175 -57.9375 27.75 C-50.20611567 25.77602953 -43.63699573 25.73718645 -36 28 C-35.25878906 28.1959375 -34.51757812 28.391875 -33.75390625 28.59375 C-27.73281437 30.34685821 -23.0566854 33.35471876 -18 37 C-16.515 37.99 -16.515 37.99 -15 39 C-14.21152753 32.79077929 -13.94781529 26.74705867 -14 20.5 C-14.08178592 3.52942147 -14.08178592 3.52942147 -11.1875 -0.5625 C-6.52929123 -3.62360862 -4.56154902 -3.32869794 0 0 Z M-68.8125 49.9375 C-76.78105114 59.49976137 -77.97600312 68.82491714 -77.20263672 80.99511719 C-76.28006396 90.12302981 -71.81001212 97.03974335 -65 103 C-56.40682146 108.89810941 -48.37543916 110.14442929 -38 109 C-31.3417071 106.72718066 -25.50680297 103.49266612 -21 98 C-20.319375 97.278125 -19.63875 96.55625 -18.9375 95.8125 C-13.56936772 88.02004991 -11.40201069 79.25700936 -12.25 69.875 C-13.02281331 65.88213123 -14.26912909 62.66944634 -16 59 C-16.67276716 57.3357865 -17.34206835 55.67013418 -18 54 C-18.66 54 -19.32 54 -20 54 C-20.20625 53.443125 -20.4125 52.88625 -20.625 52.3125 C-24.51828655 45.7646999 -32.01043376 42.32985541 -39 40 C-50.19431063 38.96065 -60.8947046 41.47364974 -68.8125 49.9375 Z " fill="#FDFDFD" transform="translate(571,45)"/>
<path d="M0 0 C8.10421721 9.31606277 8.98592631 18.15529702 9.0078125 30.15234375 C9.0177977 32.05431267 9.0177977 32.05431267 9.02798462 33.9947052 C9.03808449 36.66677989 9.04367056 39.33844709 9.04248047 42.01049805 C9.04227637 45.43042201 9.06969394 48.84952342 9.10402489 52.26925182 C9.13160831 55.54275174 9.13044111 58.81624335 9.1328125 62.08984375 C9.14718353 63.31591843 9.16155457 64.5419931 9.17636108 65.80522156 C9.17020782 66.94352921 9.16405457 68.08183685 9.15771484 69.25463867 C9.16056488 70.25500656 9.16341492 71.25537445 9.16635132 72.28605652 C8.53151016 75.67009331 7.39695622 76.87124541 4.671875 78.921875 C1.109375 78.984375 1.109375 78.984375 -2.328125 77.921875 C-4.85303421 75.07117105 -5.30040608 73.41157599 -5.515625 69.609375 C-5.45375 68.7225 -5.391875 67.835625 -5.328125 66.921875 C-8.17007098 66.921875 -8.91449268 68.23882921 -10.953125 70.171875 C-20.49958748 78.68628749 -30.89315352 80.49889261 -43.46875 80.296875 C-52.12138128 79.4561335 -60.14452466 76.44550417 -65.96484375 69.81640625 C-70.90108892 62.9565813 -72.88371578 56.39463446 -72.328125 47.921875 C-70.48123964 39.36645016 -67.4942208 33.20867767 -60.328125 27.921875 C-46.97563367 20.81363697 -33.94171683 20.55185077 -19.328125 21.921875 C-18.3175 21.99664062 -17.306875 22.07140625 -16.265625 22.1484375 C-11.85619009 22.50276709 -8.42293622 23.15056437 -4.328125 24.921875 C-6.8784526 15.78570143 -9.51886442 8.80419046 -17.703125 3.546875 C-23.03453071 1.15693451 -27.67994018 0.84893723 -33.453125 1.046875 C-37.68775916 0.9102739 -39.91083502 0.42233108 -43.328125 -2.078125 C-44.43310383 -5.32400032 -44.65470467 -7.14862902 -43.515625 -10.390625 C-42.328125 -12.078125 -42.328125 -12.078125 -40.328125 -13.078125 C-24.37632793 -15.50264422 -11.47888581 -11.88521805 0 0 Z M-52.328125 37.921875 C-56.97150301 42.80337496 -57.6798931 46.88610129 -57.61328125 53.4140625 C-57.0954345 57.96827637 -54.69853536 60.64282533 -51.453125 63.671875 C-44.57129988 67.72000742 -37.07630911 67.85231581 -29.328125 66.921875 C-19.47994814 63.67763385 -12.35951731 58.06050581 -7.453125 48.984375 C-5.39255036 44.57271848 -4.59725684 40.76624809 -4.328125 35.921875 C-19.63978312 31.68786867 -38.25377572 28.6238886 -52.328125 37.921875 Z " fill="#FDFDFD" transform="translate(791.328125,87.078125)"/>
<path d="M0 0 C3.11905047 2.57660691 4.7181368 4.1544104 6 8 C6.09703418 9.85342938 6.13496703 11.71017197 6.14044189 13.56613159 C6.14900711 15.30320877 6.14900711 15.30320877 6.15774536 17.07537842 C6.15886322 18.34713928 6.15998108 19.61890015 6.16113281 20.92919922 C6.16576177 22.28111913 6.17078653 23.63303774 6.17617798 24.98495483 C6.18929566 28.65854897 6.19574558 32.33212484 6.20018864 36.00573874 C6.20312009 38.30084701 6.20722502 40.5959503 6.21169281 42.89105606 C6.22536545 50.07196081 6.23503351 57.25285415 6.2388947 64.43377101 C6.24337646 72.72319698 6.26093071 81.01245814 6.2898953 89.30183399 C6.31150805 95.70956634 6.32159875 102.1172523 6.32293582 108.52502072 C6.32398405 112.35208098 6.32989567 116.17898626 6.34775543 120.00600815 C6.36422943 123.60606872 6.36639505 127.20585771 6.35761642 130.80594254 C6.3564785 132.75516991 6.37020067 134.70438824 6.3843689 136.65356445 C6.37879974 137.81725555 6.37323059 138.98094666 6.36749268 140.17990112 C6.36895924 141.18905516 6.3704258 142.19820919 6.3719368 143.23794365 C5.82983386 147.26367834 4.04412332 149.87853422 1.3125 152.8125 C-2.0913382 154.56041692 -5.30289944 154.66150905 -9 154 C-13.08455668 151.60254282 -14.56098469 149.42770786 -16 145 C-16.25447559 142.24353027 -16.25447559 142.24353027 -16.26069641 139.19335938 C-16.26778122 138.03255859 -16.27486603 136.87175781 -16.28216553 135.67578125 C-16.27968811 134.41121094 -16.27721069 133.14664063 -16.2746582 131.84375 C-16.27900786 130.4915336 -16.28419186 129.13931966 -16.29014587 127.78710938 C-16.30351835 124.12186952 -16.30411662 120.45673288 -16.30158257 116.79147339 C-16.3005119 113.72976097 -16.30539859 110.66806935 -16.310188 107.60636139 C-16.32127663 100.38339172 -16.3217239 93.16047406 -16.31567383 85.9375 C-16.30963059 78.4887493 -16.32195531 71.04018732 -16.3432439 63.59146881 C-16.36085994 57.19217984 -16.36686135 50.79295094 -16.36360615 44.39363861 C-16.36179351 40.57332729 -16.36442772 36.75315067 -16.37832069 32.93286133 C-16.39089493 29.34096481 -16.38895903 25.7493627 -16.37590981 22.1574707 C-16.37241649 20.21304558 -16.38372435 18.26861149 -16.39547729 16.32421875 C-16.38846298 15.16341797 -16.38144867 14.00261719 -16.3742218 12.80664062 C-16.37438954 11.80008423 -16.37455729 10.79352783 -16.37473011 9.75646973 C-15.93181035 6.49840513 -14.9317047 4.64156829 -13 2 C-8.42366471 -1.1202286 -5.3165908 -1.5466446 0 0 Z " fill="#797979" transform="translate(126,43)"/>
<path d="M0 0 C0.92941406 0.33902344 1.85882812 0.67804688 2.81640625 1.02734375 C5.10188703 1.92995538 7.26334621 2.92170872 9.4375 4.0625 C9.4375 4.7225 9.4375 5.3825 9.4375 6.0625 C10.02660156 6.15660156 10.61570312 6.25070313 11.22265625 6.34765625 C16.24136155 7.96745002 19.43433467 13.32299592 21.96484375 17.7109375 C24.76241594 23.24121064 26.5579394 27.60441867 26.59863281 33.86328125 C26.60824036 35.0546167 26.6178479 36.24595215 26.62774658 37.47338867 C26.63199646 38.76092041 26.63624634 40.04845215 26.640625 41.375 C26.64637821 42.70874025 26.65213592 44.04248049 26.65789795 45.3762207 C26.66839481 48.17041407 26.67424663 50.96457876 26.67773438 53.75878906 C26.68322824 57.34017738 26.70728021 60.92118726 26.73570633 64.50245667 C26.7543194 67.25623693 26.75953749 70.00992557 26.76107025 72.76376343 C26.76557094 74.72642409 26.78421941 76.68903574 26.80303955 78.65161133 C26.80003845 79.84294678 26.79703735 81.03428223 26.79394531 82.26171875 C26.79941376 83.83699341 26.79941376 83.83699341 26.80499268 85.4440918 C26.4375 88.0625 26.4375 88.0625 25.09490967 89.86645508 C22.52783181 91.71894846 20.58369313 91.99957614 17.4375 92.0625 C14.77978516 90.80932617 14.77978516 90.80932617 12.4375 88.0625 C11.68886235 84.10862187 11.78864321 80.18899658 11.8359375 76.17578125 C11.82793121 75.00419968 11.81992493 73.8326181 11.81167603 72.62553406 C11.78856918 68.8750062 11.7980757 65.12555743 11.8125 61.375 C11.81635515 57.64249612 11.81281923 53.91047465 11.79190063 50.17802429 C11.77987549 47.85628601 11.78237405 45.53441256 11.80160522 43.21272278 C11.77210696 34.59870235 10.51901892 26.58782379 5.05859375 19.63671875 C-0.09047726 14.63653654 -5.9902089 12.74607874 -13.0625 12.4375 C-20.14421497 12.73813884 -25.82739053 14.78640399 -31.18359375 19.484375 C-37.87381175 26.86942276 -38.01295688 34.42552044 -38.0390625 43.890625 C-38.05464203 45.11658386 -38.07022156 46.34254272 -38.08627319 47.60565186 C-38.13366788 51.50792845 -38.161522 55.4100271 -38.1875 59.3125 C-38.22399631 63.22913017 -38.26459306 67.14565962 -38.31015015 71.06219482 C-38.33736641 73.49609477 -38.35872214 75.93006861 -38.37368774 78.36407471 C-38.38394989 79.46241638 -38.39421204 80.56075806 -38.40478516 81.69238281 C-38.41128082 82.65944153 -38.41777649 83.62650024 -38.42446899 84.62286377 C-38.5625 87.0625 -38.5625 87.0625 -39.5625 90.0625 C-42.22460275 92.11027135 -43.72004692 92.05697204 -47.125 91.9375 C-50.5625 91.0625 -50.5625 91.0625 -52.25308228 89.34182739 C-53.8347865 86.58852591 -53.94263299 84.88221658 -53.95068359 81.71826172 C-53.96014008 80.6496994 -53.96959656 79.58113708 -53.9793396 78.48019409 C-53.97326691 77.32915192 -53.96719421 76.17810974 -53.9609375 74.9921875 C-53.96524277 73.20507858 -53.96524277 73.20507858 -53.96963501 71.38186646 C-53.97167709 68.85841396 -53.96613727 66.33494568 -53.95361328 63.81152344 C-53.93764741 59.97294041 -53.95341417 56.135424 -53.97265625 52.296875 C-53.97067218 49.84114353 -53.96682514 47.38541272 -53.9609375 44.9296875 C-53.96701019 43.79079071 -53.97308289 42.65189392 -53.9793396 41.47848511 C-53.87791137 29.81445511 -51.08486745 18.70729299 -43.0625 9.9375 C-31.28568648 -1.26591061 -15.15592942 -5.58598233 0 0 Z " fill="#FDFDFD" transform="translate(877.5625,73.9375)"/>
<path d="M0 0 C0.79680176 0.25209229 1.59360352 0.50418457 2.41455078 0.76391602 C7.10377386 2.35460127 11.10805537 4.07288979 14.9375 7.25 C15.93521313 10.23750258 15.40427887 12.03441226 14.9375 15.25 C11.40801597 17.60298935 10.09403476 17.61077502 5.9375 17.25 C2.8671875 16.19140625 2.8671875 16.19140625 -0.1875 14.8125 C-8.781754 10.97460795 -18.53333273 9.13678621 -27.75390625 12.12109375 C-31.49394322 14.22185116 -32.85521403 15.8035379 -34.6875 19.75 C-35.09085281 23.51462625 -35.04584865 25.05939565 -33.0625 28.25 C-28.93488444 32.18856447 -24.69920408 33.660998 -19.375 35.3125 C-18.5698999 35.57361572 -17.7647998 35.83473145 -16.93530273 36.10375977 C-12.85683671 37.41688509 -8.77083604 38.60423316 -4.625 39.6875 C3.60031979 42.14515168 11.54192238 47.03110918 15.97265625 54.53125 C18.48761175 61.61792623 18.09094562 70.10864119 15.625 77.1875 C12.25800783 83.55944216 5.38949546 87.95067749 -1.20703125 90.43359375 C-15.89641026 94.63342988 -32.27199795 92.05102292 -45.5546875 84.8125 C-48.69208854 82.85773299 -51.3768662 80.78643192 -54.0625 78.25 C-52.4375 71.5 -52.4375 71.5 -49.0625 69.25 C-44.13540044 69.53572996 -40.5474472 71.36755376 -36.25 73.6875 C-27.1954601 78.38926095 -18.0229277 81.00376032 -7.79296875 78.75 C-3.21001738 77.25352608 -0.72543638 75.40418076 1.9375 71.25 C3.83429663 67.45640675 3.15474428 63.20604392 1.9375 59.25 C1.2775 59.25 0.6175 59.25 -0.0625 59.25 C-0.0625 58.59 -0.0625 57.93 -0.0625 57.25 C-4.05346127 55.60353879 -8.09428614 54.18402573 -12.1875 52.8125 C-12.84911133 52.59005615 -13.51072266 52.3676123 -14.19238281 52.13842773 C-18.03738924 50.86280453 -21.87260704 49.7662493 -25.8125 48.8125 C-31.75630876 47.27515398 -36.82017778 44.38322546 -42.0625 41.25 C-42.0625 40.59 -42.0625 39.93 -42.0625 39.25 C-42.7225 39.25 -43.3825 39.25 -44.0625 39.25 C-49.2479208 32.17897164 -49.48308285 26.78669518 -49.0625 18.25 C-47.99658463 12.70724007 -44.96602921 8.26457052 -41.0625 4.25 C-37.47392145 1.82143455 -34.42753564 0.25 -30.0625 0.25 C-30.0625 -0.41 -30.0625 -1.07 -30.0625 -1.75 C-19.58964367 -4.12306295 -10.10427056 -3.20109095 0 0 Z " fill="#FCFCFC" transform="translate(977.0625,74.75)"/>
<path d="M0 0 C3.625 0.4375 3.625 0.4375 5.82714844 2.57885742 C7.93325647 5.92763783 8.09287351 7.69291951 8.015625 11.61328125 C8.00273438 12.77021484 7.98984375 13.92714844 7.9765625 15.11914062 C7.94304688 16.31732422 7.90953125 17.51550781 7.875 18.75 C7.85695313 19.96751953 7.83890625 21.18503906 7.8203125 22.43945312 C7.77325131 25.43960422 7.7075131 28.43814889 7.625 31.4375 C8.46272949 31.42702637 9.30045898 31.41655273 10.16357422 31.40576172 C13.26838164 31.37169981 16.37309392 31.34661089 19.47802734 31.32763672 C21.4841136 31.31261893 23.49011324 31.28721019 25.49609375 31.26171875 C26.75292969 31.25527344 28.00976562 31.24882813 29.3046875 31.2421875 C30.46726074 31.23171387 31.62983398 31.22124023 32.82763672 31.21044922 C35.625 31.4375 35.625 31.4375 37.625 33.4375 C38.08535667 36.9669011 38.16204221 38.72814478 35.98144531 41.60839844 C32.96572834 43.9492347 31.33111359 43.90232576 27.546875 43.828125 C26.38671875 43.81523438 25.2265625 43.80234375 24.03125 43.7890625 C22.8246875 43.75554687 21.618125 43.72203125 20.375 43.6875 C19.15296875 43.66945312 17.9309375 43.65140625 16.671875 43.6328125 C13.65545922 43.585681 10.64062509 43.51989413 7.625 43.4375 C7.68634203 50.89637485 7.76354156 58.35491037 7.86071491 65.81340981 C7.9053494 69.27711259 7.94462018 72.74069964 7.97143555 76.20458984 C8.00253763 80.19133392 8.05732449 84.17758676 8.11328125 88.1640625 C8.11967117 89.40177399 8.1260611 90.63948547 8.13264465 91.91470337 C8.1600522 100.13837894 8.1600522 100.13837894 11.625 107.4375 C17.52539002 110.93994826 22.46532399 110.65851472 29.015625 110.14453125 C31.078125 110.0546875 31.078125 110.0546875 34.625 110.4375 C36.6328125 112.78125 36.6328125 112.78125 37.625 115.4375 C37.25 118.0625 37.25 118.0625 35.625 120.4375 C27.89257677 125.04405001 18.57516768 125.25031877 9.9765625 123.1484375 C3.82350359 121.28821039 -0.00653448 119.68988001 -3.3125 113.9375 C-6.24604498 108.13007536 -6.54458043 102.9472224 -6.61206055 96.49731445 C-6.62517273 95.59435135 -6.63828491 94.69138824 -6.65179443 93.76106262 C-6.69358808 90.77434518 -6.72811027 87.78760133 -6.76171875 84.80078125 C-6.78738538 82.72055419 -6.81316934 80.64032858 -6.83906555 78.56010437 C-6.89203925 74.19643354 -6.94095551 69.83273751 -6.98754883 65.46899414 C-7.04779328 59.89171678 -7.12205243 54.31472337 -7.19992352 48.73766804 C-7.25769304 44.43876664 -7.30590992 40.13979586 -7.351511 35.84074974 C-7.37483422 33.78553319 -7.40156288 31.73035224 -7.43182945 29.67522621 C-7.47326331 26.79171368 -7.50127773 23.90835515 -7.52612305 21.0246582 C-7.54109329 20.18433044 -7.55606354 19.34400269 -7.57148743 18.47821045 C-7.60050737 12.99340662 -7.1688603 7.66046417 -5.375 2.4375 C-3.375 0.4375 -3.375 0.4375 0 0 Z " fill="#FDFDFD" transform="translate(606.375,42.5625)"/>
<path d="M0 0 C4.22511201 1.82448018 6.02040738 3.89224939 8 8 C8.29419977 10.68384445 8.43082532 13.13492722 8.41992188 15.81616211 C8.42839142 16.58754013 8.43686096 17.35891815 8.44558716 18.15367126 C8.4689221 20.69506468 8.46998021 23.23585146 8.46875 25.77734375 C8.47585349 27.54944601 8.48355277 29.32154598 8.49182129 31.09364319 C8.50525787 34.8049255 8.50683849 38.51599511 8.50097656 42.22729492 C8.49507989 46.97665595 8.52567399 51.72499493 8.56609344 56.47415829 C8.59197758 60.13311739 8.59484726 63.79183057 8.59120178 67.45086861 C8.59289224 69.20152926 8.60252763 70.95220136 8.62034607 72.70277214 C8.6425522 75.15401978 8.63282775 77.60320111 8.61523438 80.05444336 C8.62849762 80.77307556 8.64176086 81.49170776 8.65542603 82.2321167 C8.56157049 87.8770673 6.85485416 90.17591427 3 94 C-0.47263273 95.73631636 -4.21193013 95.60190402 -8 95 C-10.75569447 92.81840855 -12.43588747 91.12822506 -14 88 C-14.11892863 85.46903457 -14.17831025 82.96470656 -14.19287109 80.43261719 C-14.20104858 79.65192368 -14.20922607 78.87123016 -14.21765137 78.06687927 C-14.24251317 75.47688568 -14.25902444 72.88694696 -14.2734375 70.296875 C-14.27876118 69.4125605 -14.28408485 68.528246 -14.28956985 67.61713409 C-14.31630645 62.93535732 -14.33567862 58.25360725 -14.35009766 53.57177734 C-14.36673562 48.7383477 -14.41150447 43.90560121 -14.4624691 39.07242966 C-14.49614629 35.35432157 -14.50767565 31.63637543 -14.51332474 27.91812897 C-14.52003726 26.13673947 -14.53525945 24.35536063 -14.55921555 22.57411957 C-14.59087773 20.07716976 -14.5909028 17.58205925 -14.58349609 15.08496094 C-14.59990143 14.35226486 -14.61630676 13.61956879 -14.63320923 12.8646698 C-14.56413862 7.16111795 -12.90239226 4.85514268 -9 1 C-5.93570224 -0.53214888 -3.3834358 -0.22938548 0 0 Z " fill="#868686" transform="translate(186,72)"/>
<path d="M0 0 C2.58297781 2.18991597 4.48415844 3.96831688 6 7 C6.10849464 9.50604476 6.15731 11.98472581 6.16113281 14.49145508 C6.16609772 15.26400131 6.17106262 16.03654755 6.17617798 16.83250427 C6.19081346 19.39485558 6.19760432 21.95714496 6.203125 24.51953125 C6.20887585 26.29831443 6.21463359 28.0770976 6.22039795 29.85588074 C6.23091225 33.58922617 6.23675193 37.32255004 6.24023438 41.0559082 C6.24571631 45.83768137 6.26973604 50.61916938 6.29820633 55.40085316 C6.31683995 59.0768873 6.32203872 62.7528529 6.32357025 66.42893028 C6.32659629 68.1915715 6.33462319 69.95421152 6.34775543 71.71680641 C6.36482926 74.18487781 6.36293247 76.65225467 6.35644531 79.12036133 C6.3656601 79.84730194 6.37487488 80.57424255 6.3843689 81.32321167 C6.34816451 85.7250557 5.67954374 88.48522671 3 92 C0.49911117 93.73974875 -1.99214706 94.55213954 -5 95 C-9.32286766 93.91928308 -11.34506075 92.79758384 -14.17176819 89.35522461 C-16.26805475 85.50805806 -16.56076168 82.51954094 -16.50170898 78.25390625 C-16.50711197 77.50188934 -16.51251495 76.74987244 -16.51808167 75.97506714 C-16.53052889 73.50380377 -16.5141057 71.03371464 -16.49609375 68.5625 C-16.49624883 66.8366693 -16.49773934 65.11083826 -16.50050354 63.38500977 C-16.50188573 59.77376853 -16.48935978 56.16292533 -16.46655273 52.55175781 C-16.43816854 47.93154341 -16.44090778 43.31199 -16.45364285 38.69172668 C-16.4606103 35.12970369 -16.45279859 31.56783247 -16.44038582 28.00582886 C-16.43588168 26.30264875 -16.43552543 24.59945229 -16.43945122 22.89627075 C-16.44237397 20.51254084 -16.42580671 18.12970982 -16.40405273 15.74609375 C-16.40855438 15.04773407 -16.41305603 14.34937439 -16.41769409 13.62985229 C-16.34842688 9.04300384 -15.42809321 5.88844121 -13 2 C-8.47609191 -1.18729888 -5.29441691 -1.54019401 0 0 Z " fill="#BCBCBC" transform="translate(64,73)"/>
<path d="M0 0 C2 2 2 2 2.375 5.375 C2 9 2 9 0.4609375 11.16796875 C-2.80781027 13.60136987 -5.8184396 13.69643088 -9.75 13.9375 C-17.85098698 14.69161034 -22.6622889 16.57208049 -28.3125 22.375 C-33.11075036 29.83894501 -33.45197093 35.85858206 -33.4765625 44.609375 C-33.49993179 46.41501923 -33.49993179 46.41501923 -33.52377319 48.25714111 C-33.57116052 52.08808786 -33.5990196 55.9188534 -33.625 59.75 C-33.66149843 63.59530159 -33.70209617 67.44050066 -33.74765015 71.28570557 C-33.77486285 73.67508946 -33.79622013 76.06454856 -33.81118774 78.45404053 C-33.82144989 79.53236145 -33.83171204 80.61068237 -33.84228516 81.72167969 C-33.84878082 82.67097351 -33.85527649 83.62026733 -33.86196899 84.59832764 C-34 87 -34 87 -35 90 C-37.66210275 92.04777135 -39.15754692 91.99447204 -42.5625 91.875 C-46 91 -46 91 -47.69058228 89.27359009 C-49.26044761 86.54777525 -49.38005751 84.88069404 -49.38818359 81.74755859 C-49.39764008 80.69901703 -49.40709656 79.65047546 -49.4168396 78.57015991 C-49.41076691 77.44099152 -49.40469421 76.31182312 -49.3984375 75.1484375 C-49.40130768 73.9792276 -49.40417786 72.8100177 -49.40713501 71.6053772 C-49.40917698 69.12900306 -49.40363791 66.65261284 -49.39111328 64.17626953 C-49.37514882 60.41010774 -49.39091363 56.64503334 -49.41015625 52.87890625 C-49.40817215 50.46874765 -49.40432504 48.05858972 -49.3984375 45.6484375 C-49.40451019 44.53141449 -49.41058289 43.41439148 -49.4168396 42.26351929 C-49.30985615 30.18714983 -46.23532415 19.98702275 -38.01171875 10.953125 C-34.66360416 7.70252831 -31.05793106 5.28132443 -27 3 C-26.27425781 2.57332031 -25.54851563 2.14664063 -24.80078125 1.70703125 C-16.9656712 -2.19057019 -8.43036693 -1.31262292 0 0 Z " fill="#FCFCFC" transform="translate(715,74)"/>
<path d="M0 0 C2.81816396 0.70454099 4.54199262 1.55587982 6.63000488 3.58058167 C8.57026454 7.00709007 8.4346454 10.25120179 8.41992188 14.08569336 C8.42839142 14.89754593 8.43686096 15.7093985 8.44558716 16.54585266 C8.4689705 19.22734273 8.46997903 21.90825947 8.46875 24.58984375 C8.47585069 26.45545176 8.48354955 28.32105758 8.49182129 30.18666077 C8.50526909 34.0964261 8.50683349 38.00598949 8.50097656 41.91577148 C8.49507964 46.92419044 8.5256701 51.9316403 8.56609344 56.93987179 C8.59195241 60.79266066 8.59484952 64.64521561 8.59120178 68.4980793 C8.59289467 70.34446206 8.60255344 72.19085544 8.62034607 74.03715324 C8.64250129 76.62039792 8.63285278 79.20167374 8.61523438 81.78491211 C8.63512924 82.92671432 8.63512924 82.92671432 8.65542603 84.09158325 C8.59298966 88.03469524 8.11709125 89.84711857 5.6920166 93.01344299 C3 95 3 95 -0.6875 95 C-4 94 -4 94 -6 91 C-6.1997443 88.23750774 -6.28333786 85.57559385 -6.2746582 82.8125 C-6.27976913 81.97807373 -6.28488007 81.14364746 -6.29014587 80.28393555 C-6.30405929 77.52255098 -6.30308398 74.76141547 -6.30078125 72 C-6.30466685 70.08333238 -6.30900124 68.16666563 -6.31376648 66.25 C-6.32123218 62.23174244 -6.3209346 58.21357274 -6.31567383 54.1953125 C-6.30987478 49.04006246 -6.326819 43.88517117 -6.3500185 38.72998047 C-6.36473204 34.77178842 -6.36563086 30.81368329 -6.36250877 26.85546875 C-6.36302306 24.95441985 -6.36828075 23.05336621 -6.37832069 21.15234375 C-6.39062356 18.49715674 -6.38393101 15.84267527 -6.37231445 13.1875 C-6.37995819 12.39883545 -6.38760193 11.6101709 -6.39547729 10.79760742 C-6.34397322 5.48584778 -6.34397322 5.48584778 -4.66423035 3.11328125 C-3.11053976 2.0739452 -1.55532744 1.03688496 0 0 Z " fill="#FDFDFD" transform="translate(449,71)"/>
<path d="M0 0 C0.66 0.33 1.32 0.66 2 1 C0.63016497 4.16115776 0.0109362 4.9927092 -3 7 C-5.26171875 7.1953125 -5.26171875 7.1953125 -7.6875 7.125 C-8.89986328 7.09792969 -8.89986328 7.09792969 -10.13671875 7.0703125 C-11.05904297 7.03550781 -11.05904297 7.03550781 -12 7 C-9.43637617 5.61275767 -7.83121558 4.97974587 -4.875 4.625 C-1.8682951 4.32024052 -1.8682951 4.32024052 -0.625 1.9375 C-0.41875 1.298125 -0.2125 0.65875 0 0 Z " fill="#919191" transform="translate(190,160)"/>
<path d="M0 0 C1.32 0.66 2.64 1.32 4 2 C3.67 2.66 3.34 3.32 3 4 C0.4375 4.625 0.4375 4.625 -2 5 C-2.33 4.34 -2.66 3.68 -3 3 C-2.34 3 -1.68 3 -1 3 C-0.67 2.01 -0.34 1.02 0 0 Z " fill="#C3C3C3" transform="translate(64,74)"/>
</svg>
